<?xml version="1.0" encoding="UTF-8" standalone="no"?>
<svg
   id="svg2"
   version="1.1"
   width="39.999687"
   height="33.808998"
   xml:space="preserve"
   sodipodi:docname="02banner_logo.svg"
   viewBox="0 0 133.33229 112.69666"
   inkscape:version="1.3 (0e150ed6c4, 2023-07-21)"
   xmlns:inkscape="http://www.inkscape.org/namespaces/inkscape"
   xmlns:sodipodi="http://sodipodi.sourceforge.net/DTD/sodipodi-0.dtd"
   xmlns:xlink="http://www.w3.org/1999/xlink"
   xmlns="http://www.w3.org/2000/svg"
   xmlns:svg="http://www.w3.org/2000/svg"><sodipodi:namedview
     id="namedview1"
     pagecolor="#505050"
     bordercolor="#ffffff"
     borderopacity="1"
     inkscape:showpageshadow="0"
     inkscape:pageopacity="0"
     inkscape:pagecheckerboard="1"
     inkscape:deskcolor="#505050"
     inkscape:zoom="5.3035285"
     inkscape:cx="67.407953"
     inkscape:cy="57.037498"
     inkscape:window-width="1536"
     inkscape:window-height="801"
     inkscape:window-x="1912"
     inkscape:window-y="-8"
     inkscape:window-maximized="1"
     inkscape:current-layer="svg2" /><defs
     id="defs6"><linearGradient
       x1="0"
       y1="0"
       x2="1"
       y2="0"
       gradientUnits="userSpaceOnUse"
       gradientTransform="matrix(101.039,0,0,-101.039,3.407,45.441)"
       spreadMethod="pad"
       id="linearGradient22"><stop
         offset="0"
         id="stop24"
         stop-opacity="1"
         stop-color="#4b0607" /><stop
         offset=".361"
         id="stop26"
         stop-opacity="1"
         stop-color="#e51b23" /><stop
         offset=".361"
         id="stop28"
         stop-opacity="1"
         stop-color="#e51b23" /><stop
         offset=".996"
         id="stop30"
         stop-opacity="1"
         stop-color="#4b0607" /><stop
         offset="1"
         id="stop32"
         stop-opacity="1"
         stop-color="#4b0607" /></linearGradient><linearGradient
       x1="0"
       y1="0"
       x2="1"
       y2="0"
       gradientUnits="userSpaceOnUse"
       gradientTransform="matrix(0,-11.5408,-11.5408,0,53.926,28.552)"
       spreadMethod="pad"
       id="linearGradient44"><stop
         offset="0"
         id="stop46"
         stop-opacity="1"
         stop-color="#3d3a3b" /><stop
         offset="1"
         id="stop48"
         stop-opacity="1"
         stop-color="#231f20" /></linearGradient><linearGradient
       x1="0"
       y1="0"
       x2="1"
       y2="0"
       gradientUnits="userSpaceOnUse"
       gradientTransform="matrix(-108.46392,-75.947256,-75.947256,108.46392,108.22695,83.6378)"
       spreadMethod="pad"
       id="linearGradient60"><stop
         offset="0"
         id="stop62"
         stop-opacity="1"
         stop-color="#393536" /><stop
         offset=".188"
         id="stop64"
         stop-opacity="1"
         stop-color="#9e9c9c" /><stop
         offset=".406"
         id="stop66"
         stop-opacity="1"
         stop-color="#5a5758" /><stop
         offset=".542"
         id="stop68"
         stop-opacity="1"
         stop-color="#787677" /><stop
         offset=".718"
         id="stop70"
         stop-opacity="1"
         stop-color="#ededed" /><stop
         offset=".899"
         id="stop72"
         stop-opacity="1"
         stop-color="#5e5b5c" /><stop
         offset=".899"
         id="stop74"
         stop-opacity="1"
         stop-color="#5e5b5c" /><stop
         offset="1"
         id="stop76"
         stop-opacity="1"
         stop-color="#abaaaa" /></linearGradient><linearGradient
       xlink:href="#linearGradient22"
       id="linearGradient3218"
       gradientUnits="userSpaceOnUse"
       gradientTransform="matrix(101.039,0,0,-101.039,3.407,45.441)"
       spreadMethod="pad"
       x1="0"
       y1="0"
       x2="10.653"
       y2="0" /><linearGradient
       xlink:href="#linearGradient60"
       id="linearGradient3222"
       gradientUnits="userSpaceOnUse"
       gradientTransform="matrix(-108.46392,-75.947256,-75.947256,108.46392,108.22695,83.6378)"
       spreadMethod="pad"
       x1="-9.566"
       y1="0.866"
       x2="1"
       y2="0" /><linearGradient
       xlink:href="#linearGradient44"
       id="linearGradient3226"
       gradientUnits="userSpaceOnUse"
       gradientTransform="matrix(0,-11.5408,-11.5408,0,53.926,28.552)"
       spreadMethod="pad"
       x1="-15.85"
       y1="0"
       x2="-11.253"
       y2="0" /><clipPath
       clipPathUnits="userSpaceOnUse"
       id="clipPath18"><path
         d="M 1044.46,31.816 H 34.066 V 877.008 H 1044.46 Z"
         id="path20" /></clipPath><clipPath
       clipPathUnits="userSpaceOnUse"
       id="clipPath40"><path
         d="M 1044.46,31.816 H 34.066 l -0.003,140.625 c 60.765,30.137 478.675,218.907 1010.377,0.762 z"
         id="path42" /></clipPath><clipPath
       clipPathUnits="userSpaceOnUse"
       id="clipPath56"><path
         d="m 1041.16,106.562 c 0,-37.578 -30.45,-68.027 -68.051,-68.027 H 106.523 c -37.597,0 -68.046,30.45 -68.046,68.027 v 699.36 c 0,37.574 30.449,68.039 68.046,68.039 h 866.586 c 37.601,0 68.051,-30.465 68.051,-68.039 z M 972.992,912.605 H 106.699 C 47.754,912.605 0,864.844 0,805.926 V 106.719 C 0,47.773 47.754,0 106.699,0 h 866.293 c 58.928,0 106.698,47.773 106.698,106.719 v 699.207 c 0,58.918 -47.77,106.679 -106.698,106.679 z"
         id="path58" /></clipPath></defs><g
     id="g10"
     transform="matrix(1.25,0,0,-1.25,0,114.075)"><g
       id="g14"
       transform="scale(0.1)"><g
         clip-path="url(#clipPath18)"
         id="g16"><path
           id="path34"
           d="m 34.066,31.816 h 1010.39 V 877.007 H 34.066 V 31.817 Z"
           fill="url(#linearGradient3218)"
           fill-opacity="1"
           fill-rule="nonzero"
           stroke="none"
           style="fill:url(#linearGradient3218)" /></g></g><g
       id="g36"
       transform="scale(0.1)"><g
         clip-path="url(#clipPath40)"
         id="g38"><path
           id="path50"
           d="M 1044.46,31.816 H 34.066 l -0.003,140.625 c 60.765,30.137 478.675,218.907 1010.377,0.762 l 0.02,-141.387"
           fill="url(#linearGradient3226)"
           fill-opacity="1"
           fill-rule="nonzero"
           stroke="none"
           style="fill:url(#linearGradient3226)" /></g></g><g
       id="g52"
       transform="scale(0.1)"><g
         clip-path="url(#clipPath56)"
         id="g54"><path
           id="path78"
           d="m 1041.16,106.562 c 0,-37.578 -30.45,-68.027 -68.051,-68.027 H 106.523 c -37.597,0 -68.046,30.45 -68.046,68.027 v 699.36 c 0,37.574 30.449,68.039 68.046,68.039 h 866.586 c 37.601,0 68.051,-30.465 68.051,-68.039 z M 972.992,912.605 H 106.699 C 47.754,912.605 0,864.844 0,805.926 V 106.719 C 0,47.773 47.754,0 106.699,0 h 866.293 c 58.928,0 106.698,47.773 106.698,106.719 v 699.207 c 0,58.918 -47.77,106.679 -106.698,106.679"
           fill="url(#linearGradient3222)"
           fill-opacity="1"
           fill-rule="nonzero"
           stroke="none"
           style="fill:url(#linearGradient3222)" /></g></g><g
       id="g3228"
       fill="#ffffff"
       fill-opacity="1"
       fill-rule="nonzero"
       stroke="none"><path
         d="m 15.108,59.545 h 5.203 c 0.848,0 1.158,0.342 1.158,1.07 v 0.272 c 0,0.9 -0.453,1.067 -1.44,1.067 h -4.921 v -2.41 z m -3.123,4.94 h 9.468 c 2.407,0 3.054,-1.188 3.054,-3.022 v -0.576 c 0,-1.366 -0.307,-2.172 -1.743,-2.504 v -0.03 c 0.926,-0.173 1.697,-0.58 1.697,-2.253 v -3.192 h -3.119 v 2.686 c 0,1.072 -0.317,1.42 -1.285,1.42 h -4.95 v -4.106 h -3.122 v 11.577"
         id="path88" /><path
         d="m 44.897,55.523 h 4.316 c 1.34,0 1.862,0.38 1.862,1.83 v 2.774 c 0,1.44 -0.522,1.827 -1.862,1.827 h -4.316 v -6.43 z m -3.121,8.962 h 8.197 c 3.121,0 4.227,-1.024 4.227,-3.541 V 56.46 c 0,-2.527 -1.106,-3.553 -4.227,-3.553 h -8.197 v 11.577"
         id="path90" /><path
         d="m 56.024,64.485 h 11.56 V 62.123 H 59.15 v -2.32 h 8.006 V 57.69 H 59.15 v -2.333 h 8.615 v -2.449 h -11.74 v 11.577"
         id="path92" /><path
         d="M 83.461,64.485 H 88.3 l 4.545,-8.51 0.026,-0.08 v 8.59 h 3.115 V 52.908 H 91.15 L 86.61,61.7 86.585,61.315 V 52.908 H 83.46 v 11.577"
         id="path94" /><path
         d="m 36.107,59.268 h -6.486 v 0.605 c 0,1.258 0.307,2.028 1.936,2.028 h 4.55 z m -5.216,5.217 c -2.789,0 -4.44,-0.694 -4.44,-3.649 v -7.928 h 3.17 v 4.069 h 6.486 v -4.069 h 3.094 v 11.577 h -8.31"
         id="path96" /><path
         d="m 78.514,57.475 c 0,-1.448 -0.307,-2.002 -1.752,-2.002 h -2.48 c -1.453,0 -1.754,0.554 -1.754,2.002 v 4.441 h 4.068 c 1.611,0 1.918,-0.751 1.918,-1.996 z m -1.262,7.01 H 69.38 V 56.52 c 0,-2.928 1.639,-3.612 4.403,-3.612 h 3.47 c 2.764,0 4.4,0.684 4.4,3.612 v 4.35 c 0,2.931 -1.636,3.615 -4.4,3.615"
         id="path98" /><path
         d="m 25.855,44.807 h 3.507 l 0.023,-1.399 c 0,-1.02 -0.217,-1.676 -0.65,-1.969 -0.435,-0.294 -1.402,-0.441 -2.903,-0.441 -1.377,0 -2.29,0.195 -2.736,0.588 -0.448,0.393 -0.67,1.193 -0.67,2.4 0,1.541 0.088,2.516 0.267,2.922 0.222,0.494 0.559,0.828 1.01,1 0.45,0.174 1.216,0.26 2.299,0.26 1.416,0 2.33,-0.135 2.74,-0.4 0.413,-0.268 0.62,-0.858 0.62,-1.774 h -1.528 c -0.028,0.461 -0.142,0.748 -0.342,0.86 -0.2,0.11 -0.703,0.168 -1.508,0.168 -0.875,0 -1.43,-0.096 -1.666,-0.29 -0.236,-0.193 -0.353,-0.644 -0.353,-1.357 l -0.006,-0.707 0.012,-0.904 c 0,-0.698 0.116,-1.143 0.35,-1.334 0.233,-0.192 0.773,-0.287 1.622,-0.287 0.825,0 1.348,0.082 1.572,0.244 0.224,0.16 0.336,0.543 0.336,1.144 l 0.006,0.29 h -2.002 v 0.986"
         id="path100" /><path
         d="m 33.153,44.559 h 2.17 c 0.517,0 0.86,0.082 1.03,0.246 0.169,0.162 0.254,0.49 0.254,0.982 0,0.502 -0.074,0.828 -0.218,0.973 -0.147,0.146 -0.467,0.22 -0.961,0.22 h -2.275 v -2.42 z m -1.51,-3.5 v 7.047 h 3.925 c 0.977,0 1.649,-0.15 2.019,-0.45 0.37,-0.299 0.554,-0.842 0.554,-1.625 0,-0.713 -0.092,-1.2 -0.278,-1.46 -0.183,-0.262 -0.562,-0.444 -1.134,-0.544 V 43.98 c 0.882,-0.046 1.324,-0.503 1.324,-1.367 V 41.06 h -1.51 v 1.287 c 0,0.724 -0.404,1.088 -1.215,1.088 H 33.153 V 41.06 h -1.51"
         id="path102" /><path
         d="m 45.008,43.398 -1.377,3.67 -1.353,-3.67 z m 0.35,-0.986 H 41.92 l -0.496,-1.353 h -1.598 l 2.649,7.047 h 2.27 l 2.689,-7.047 h -1.568 l -0.508,1.353"
         id="path104" /><path
         d="m 50.828,44.46 h 1.721 c 0.686,0 1.12,0.071 1.305,0.21 0.183,0.139 0.277,0.469 0.277,0.988 0,0.596 -0.076,0.965 -0.23,1.108 -0.155,0.142 -0.555,0.215 -1.2,0.215 h -1.873 v -2.52 z m -1.511,-3.401 v 7.047 h 3.607 c 1.076,0 1.803,-0.166 2.178,-0.499 0.375,-0.332 0.564,-0.972 0.564,-1.923 0,-0.942 -0.181,-1.569 -0.539,-1.88 -0.357,-0.308 -1.08,-0.462 -2.17,-0.462 l -0.35,-0.006 h -1.779 v -2.277 h -1.511"
         id="path106" /><path
         d="M 64.579,48.105 V 41.06 h -1.512 v 3.047 H 59.334 V 41.06 h -1.511 v 7.047 h 1.511 V 45.23 h 3.733 v 2.876 h 1.512"
         id="path108" /><path
         d="m 67.174,41.059 h 1.512 v 7.046 H 67.174 V 41.06 Z"
         id="path110" /><path
         d="m 76.21,43.572 h 1.517 V 43.33 c 0,-0.98 -0.203,-1.615 -0.608,-1.902 -0.404,-0.287 -1.298,-0.43 -2.683,-0.43 -1.572,0 -2.54,0.227 -2.9,0.68 -0.36,0.455 -0.542,1.67 -0.542,3.644 0,1.164 0.245,1.928 0.735,2.295 0.49,0.367 1.515,0.551 3.074,0.551 1.137,0 1.895,-0.15 2.276,-0.453 0.38,-0.3 0.572,-0.899 0.572,-1.793 l 0.006,-0.16 h -1.518 v 0.181 c 0,0.461 -0.098,0.756 -0.293,0.885 -0.197,0.129 -0.644,0.193 -1.346,0.193 -0.937,0 -1.502,-0.101 -1.69,-0.304 -0.187,-0.203 -0.28,-0.805 -0.28,-1.807 0,-1.35 0.082,-2.148 0.252,-2.394 0.17,-0.248 0.716,-0.373 1.642,-0.373 0.75,0 1.239,0.07 1.463,0.207 0.223,0.138 0.334,0.441 0.334,0.908 l -0.012,0.314"
         id="path112" /><path
         d="m 85.784,46.05 h -1.477 a 1.334,1.334 0 0 0 -0.012,0.145 c -0.035,0.397 -0.135,0.645 -0.299,0.746 -0.162,0.102 -0.546,0.153 -1.154,0.153 -0.715,0 -1.183,-0.059 -1.402,-0.176 -0.22,-0.117 -0.33,-0.363 -0.33,-0.738 0,-0.444 0.09,-0.711 0.267,-0.8 0.18,-0.089 0.772,-0.16 1.776,-0.206 1.183,-0.059 1.95,-0.21 2.3,-0.45 0.348,-0.24 0.522,-0.742 0.522,-1.501 0,-0.936 -0.203,-1.541 -0.613,-1.815 -0.408,-0.273 -1.307,-0.41 -2.701,-0.41 -1.252,0 -2.084,0.133 -2.495,0.402 -0.41,0.268 -0.615,0.813 -0.615,1.631 l -0.006,0.258 h 1.471 l 0.006,-0.15 c 0,-0.493 0.097,-0.793 0.29,-0.903 0.196,-0.109 0.727,-0.166 1.595,-0.166 0.675,0 1.107,0.065 1.295,0.192 0.187,0.127 0.28,0.422 0.28,0.883 0,0.341 -0.072,0.566 -0.214,0.68 -0.143,0.11 -0.447,0.179 -0.918,0.202 l -0.836,0.047 c -1.26,0.065 -2.064,0.22 -2.414,0.465 -0.35,0.244 -0.525,0.768 -0.525,1.574 0,0.823 0.21,1.371 0.632,1.645 0.422,0.273 1.266,0.41 2.53,0.41 1.199,0 2.006,-0.127 2.422,-0.377 0.416,-0.252 0.625,-0.742 0.625,-1.473 v -0.267"
         id="path114" /><path
         d="M 66.043,14.373 V 9.826 h 4.416 l 3.084,3.256 h -4.242 v 4.27 l -3.258,-2.979"
         id="path116" /><path
         d="M 65.924,21 H 77.545 V 9.523 l -3.56,3.565 v 4.615 H 69.297 L 65.924,21"
         id="path118" /><path
         d="M 35.828,17.922 34.39,14.117 h 3.02 z m 5.733,-7.455 h -2.63 l -0.804,1.94 h -4.382 l -0.735,-1.94 h -2.585 l 3.952,9.797 h 2.832 l 4.352,-9.797"
         id="path120" /><path
         d="m 51.002,20.264 h 2.125 v -9.797 h -2.441 v 6.119 L 48.04,13.51 h -0.373 l -2.642,3.076 v -6.12 H 42.58 v 9.798 h 2.127 l 3.149,-3.635 3.146,3.635"
         id="path122" /><path
         d="m 57.121,12.262 h 1.598 c 2.455,0 3.19,1.666 3.19,3.103 0,1.68 -0.907,3.104 -3.22,3.104 h -1.568 z m 1.883,8.002 c 3.58,0 5.418,-2.227 5.418,-4.912 0,-2.815 -1.783,-4.885 -5.691,-4.885 h -4.053 v 9.797 h 4.326"
         id="path124" /></g></g></svg>
