<?xml version="1.0" encoding="UTF-8" standalone="no"?>
<!-- Uploaded to: SVG Repo, www.svgrepo.com, Generator: SVG Repo Mixer Tools -->

<svg
   width="40.012001"
   height="40.012001"
   viewBox="0 0 28.000001 28.000001"
   id="Camada_1"
   version="1.1"
   xml:space="preserve"
   sodipodi:docname="03banner_logo.svg"
   inkscape:version="1.3 (0e150ed6c4, 2023-07-21)"
   xmlns:inkscape="http://www.inkscape.org/namespaces/inkscape"
   xmlns:sodipodi="http://sodipodi.sourceforge.net/DTD/sodipodi-0.dtd"
   xmlns="http://www.w3.org/2000/svg"
   xmlns:svg="http://www.w3.org/2000/svg"><defs
   id="defs8" /><sodipodi:namedview
   id="namedview8"
   pagecolor="#505050"
   bordercolor="#ffffff"
   borderopacity="1"
   inkscape:showpageshadow="0"
   inkscape:pageopacity="0"
   inkscape:pagecheckerboard="1"
   inkscape:deskcolor="#505050"
   inkscape:zoom="8"
   inkscape:cx="4.8125"
   inkscape:cy="12.5625"
   inkscape:window-width="1536"
   inkscape:window-height="801"
   inkscape:window-x="1912"
   inkscape:window-y="-8"
   inkscape:window-maximized="1"
   inkscape:current-layer="Camada_1" />&#10;&#10;<style
   type="text/css"
   id="style1">&#10;	.st0{fill:none;stroke:#FFFFFF;stroke-width:1.2;stroke-linecap:round;}&#10;	.st1{fill:#FFFFFF;}&#10;</style>&#10;&#10;<path
   d="m 4,0 h 20 c 2.2,0 4,1.8 4,4 v 20 c 0,2.2 -1.8,4 -4,4 H 4 C 1.8,28 0,26.2 0,24 V 4 C 0,1.8 1.8,0 4,0 Z"
   id="path1" />&#10;&#10;<g
   id="g8"
   transform="translate(-2,-2)">&#10;&#10;<path
   class="st0"
   d="M 25,6.5 23,9"
   id="path2" />&#10;&#10;<path
   class="st0"
   d="M 9,9 7,6.5"
   id="path3" />&#10;&#10;<path
   class="st1"
   d="m 9,14 h 14 c 0.6,0 1,0.4 1,1 v 10 c 0,0.6 -0.4,1 -1,1 H 9 C 8.4,26 8,25.6 8,25 V 15 c 0,-0.6 0.4,-1 1,-1 z"
   id="path4" />&#10;&#10;<path
   class="st1"
   d="m 9,8 h 14 c 0.6,0 1,0.4 1,1 v 3 c 0,0.6 -0.4,1 -1,1 H 9 C 8.4,13 8,12.6 8,12 V 9 C 8,8.4 8.4,8 9,8 Z"
   id="path5" />&#10;&#10;<circle
   cx="16"
   cy="20.1"
   r="4.6999998"
   id="circle5" />&#10;&#10;<circle
   class="st1"
   cx="16"
   cy="20.1"
   r="3.5"
   id="circle6" />&#10;&#10;<path
   d="m 16,17.8 c -1.1,0 -2,0.7 -2.3,1.8 h 1.2 C 15.1,19.2 15.5,19 16,19 c 0.7,0 1.2,0.6 1.2,1.2 0,0.6 -0.6,1.2 -1.2,1.2 -0.5,0 -0.9,-0.3 -1.1,-0.7 h -1.2 c 0.2,1 1.2,1.8 2.3,1.8 1.3,0 2.4,-1.1 2.4,-2.4 0,-1.3 -1.1,-2.3 -2.4,-2.3 z"
   id="path6" />&#10;&#10;<path
   d="m 13.2,10.5 c 0,0.7 -0.6,1.2 -1.2,1.2 -0.6,0 -1.2,-0.6 -1.2,-1.2 0,-0.7 0.6,-1.2 1.2,-1.2 0.6,0 1.2,0.5 1.2,1.2 z"
   id="path7" />&#10;&#10;<path
   d="m 21.2,10.5 c 0,0.7 -0.6,1.2 -1.2,1.2 -0.6,0 -1.2,-0.6 -1.2,-1.2 0,-0.7 0.6,-1.2 1.2,-1.2 0.6,0 1.2,0.5 1.2,1.2 z"
   id="path8" />&#10;&#10;</g>&#10;&#10;</svg>
