<?xml version="1.0" encoding="UTF-8" standalone="no"?>
<!-- Uploaded to: SVG Repo, www.svgrepo.com, Generator: SVG Repo Mixer Tools -->

<svg
   width="39.998875"
   height="13.28"
   viewBox="0 -67.06 199.99437 66.399998"
   version="1.1"
   id="svg1"
   sodipodi:docname="04banner_logo.svg"
   inkscape:version="1.3 (0e150ed6c4, 2023-07-21)"
   xmlns:inkscape="http://www.inkscape.org/namespaces/inkscape"
   xmlns:sodipodi="http://sodipodi.sourceforge.net/DTD/sodipodi-0.dtd"
   xmlns="http://www.w3.org/2000/svg"
   xmlns:svg="http://www.w3.org/2000/svg">
  <defs
     id="defs1" />
  <sodipodi:namedview
     id="namedview1"
     pagecolor="#505050"
     bordercolor="#ffffff"
     borderopacity="1"
     inkscape:showpageshadow="0"
     inkscape:pageopacity="0"
     inkscape:pagecheckerboard="1"
     inkscape:deskcolor="#505050"
     inkscape:zoom="8"
     inkscape:cx="22.4375"
     inkscape:cy="17.1875"
     inkscape:window-width="1536"
     inkscape:window-height="801"
     inkscape:window-x="1912"
     inkscape:window-y="-8"
     inkscape:window-maximized="1"
     inkscape:current-layer="svg1" />
  <path
     d="m 200.65262,-51.189788 c -2.73,-15.676 -49.831,-20.568 -105.206997,-10.927 -23.256,4.051 -44.255,10.026 -60.608,16.748 2.512,0.055 4.375,0.631 5.507,1.76 0.885,0.886 1.332,2.102 1.332,3.617 v 1.555 h -5.43 v -1.373 c 0,-1.144 -0.686,-1.853 -1.901,-1.853 -1.021,0 -1.65,0.461 -1.853,1.369 a 2.63,2.63 0 0 0 0.022,1.084 c 0.581,2.375 8.644,3.85 9.521,8.233 0.115,0.564 0.271,1.771 0.025,3.498 -0.503,3.535 -3.609,4.899 -7.563,4.899 -5.519,0 -7.761,-2.614 -7.761,-6.218 l 0.004,-1.705 h 5.821 l 0.003,2.124 c 0,1.194 0.868,1.853 2.05,1.853 1.12,0 1.774,-0.451 2,-1.373 0.105,-0.424 0.151,-1.049 -0.04,-1.527 -1.077,-2.702 -8.606,-3.964 -9.533,-8.333 -0.207,-0.982 -0.224,-1.818 -0.052,-2.875 a 5.606,5.606 0 0 1 0.482,-1.511 c -18.1389996,8.483 -28.7499996,17.817 -27.34799963,25.876 C 2.8566234,-0.59078816 49.956623,4.2962118 105.33162,-5.3447882 c 24.342,-4.237 46.226,-10.5799998 62.881,-17.6879998 -0.241,0.012 -0.475,0.038 -0.725,0.038 -3.79,0 -7.174,-1.42 -7.525,-5.294 -0.062,-0.705 -0.073,-1 -0.075,-1.402 l 0.002,-8.906 c 0,-0.384 0.045,-1.058 0.088,-1.406 0.449,-3.744 3.409,-5.288 7.512,-5.288 3.175,0 7.068,0.911 7.496,5.291 0.057,0.55 0.051,1.137 0.05,1.33 v 0.841 h -5.484 v -1.255 c 0,-0.027 -0.008,-0.496 -0.068,-0.789 -0.09,-0.447 -0.471,-1.483 -2.033,-1.483 -1.543,0 -1.943,1.038 -2.043,1.484 -0.057,0.245 -0.084,0.597 -0.084,0.987 v 9.679 c -0.005,0.336 0.012,0.599 0.046,0.792 0.027,0.152 0.304,1.486 2.1,1.486 1.783,0 2.059,-1.334 2.084,-1.486 0.047,-0.262 0.053,-0.574 0.051,-0.792 v -2.999 h -2.158 v -3.23 h 7.631 v 5.746 c -0.002,0.391 -0.008,0.68 -0.074,1.4 -0.092,1.016 -0.412,1.876 -0.914,2.611 17.663,-8.387 27.947,-17.57 26.563,-25.512 z m -143.587997,27.783 -2.778,-18.876 h -0.1 l -2.849,18.876 h -5.855 l 3.938,-21.317 h 9.553 l 3.914,21.317 z m 28.162,0 -0.129,-18.511 h -0.094 l -3.445,18.511 h -5.495 l -3.428,-18.511 h -0.098 l -0.125,18.511 h -5.445 l 0.472,-21.317 h 8.758 l 2.55,15.835 h 0.125 l 2.557,-15.835 h 8.754 l 0.47,21.317 z m 25.640997,-4.131 c -0.586,4.129 -4.631,4.851 -7.49,4.851 -4.746997,0 -7.682997,-2.029 -7.682997,-6.158 l 0.003,-1.684 h 5.750997 l 0.004,2.098 c 0,1.139 0.803,1.836 2.043,1.836 1.106,0 1.754,-0.444 1.979,-1.356 0.104,-0.425 0.147,-1.045 -0.037,-1.513 -1.06,-2.651 -8.529997,-3.95 -9.437997,-8.251 -0.208,-0.975 -0.223,-1.803 -0.052,-2.849 0.632,-3.899 4.373997,-4.709 7.385997,-4.709 2.694,0 4.655,0.588 5.831,1.764 0.877,0.878 1.321,2.083 1.321,3.582 v 1.538 h -5.378 v -1.357 c 0,-1.162 -0.721,-1.834 -1.88,-1.834 -1.028,0 -1.65,0.457 -1.854,1.356 a 2.59,2.59 0 0 0 0.026,1.072 c 0.576,2.364 8.568,3.809 9.443,8.151 0.113,0.554 0.268,1.743 0.025,3.463 z m 19.918,-1.937 c 0.008,0.4 -0.031,1.199 -0.053,1.404 -0.328,3.512 -2.84,5.297 -7.447,5.297 -4.625,0 -7.139,-1.785 -7.465,-5.297 a 16.957,16.957 0 0 1 -0.053,-1.4 v -15.258 h 5.502 v 15.739 c -0.006,0.352 0.012,0.612 0.047,0.793 0.068,0.35 0.416,1.486 1.969,1.486 1.548,0 1.896,-1.137 1.969,-1.482 0.031,-0.186 0.05,-0.459 0.05,-0.798 v -15.738 h 5.481 z m 23.705,5.851 h -7.656 l -5.139,-16.885 h -0.086 l 0.285,16.885 h -5.336 v -21.1 h 7.977 l 4.75,16.22 h 0.111 l -0.281,-16.22 h 5.375 z"
     fill="#2d4f9e"
     id="path1" />
  <path
     style="fill:#ffffff;fill-opacity:1;stroke:none;stroke-width:0.00220971"
     d="m 13.413487,8.4355629 c 4.07e-4,-0.2066298 0.0821,-3.9174826 0.08708,-3.955635 4.15e-4,-0.00318 0.390259,-0.00318 0.866319,0 l 0.865565,0.00578 0.252528,1.5688932 c 0.138891,0.8628912 0.256681,1.5732021 0.261756,1.5784685 0.0051,0.00527 0.0175,2.948e-4 0.02761,-0.011049 0.01011,-0.011343 0.131243,-0.7241399 0.269178,-1.5839928 l 0.250791,-1.5633689 h 0.868453 0.868454 l 3.07e-4,0.1491553 c 1.7e-4,0.082035 0.01992,1.0043126 0.04389,2.0495048 0.02397,1.0451922 0.04372,1.9326665 0.04389,1.972165 l 3.07e-4,0.071816 h -0.526749 -0.52675 l -0.01459,-0.7789223 c -0.008,-0.4284073 -0.01461,-1.2587053 -0.01463,-1.8451068 -2.2e-5,-0.6822301 -0.0078,-1.0661844 -0.02171,-1.0661844 -0.01192,0 -0.02684,0.022373 -0.03315,0.049718 -0.01416,0.061337 -0.674374,3.6149073 -0.674374,3.6297868 0,0.00589 -0.24295,0.010708 -0.539889,0.010708 -0.495051,0 -0.540849,-0.00321 -0.551437,-0.03867 -0.0064,-0.021268 -0.156355,-0.8242214 -0.333342,-1.7843398 -0.380036,-2.0616164 -0.341829,-1.8672038 -0.366952,-1.8672038 -0.01181,0 -0.02034,0.2162824 -0.02034,0.51564 0,0.283602 -0.0066,1.1139 -0.01467,1.8451067 l -0.01467,1.3294668 H 13.93964 13.412932 Z"
     id="path17"
     transform="matrix(4.9999999,0,0,4.9999999,0,-67.06)" />
  <path
     style="fill:#ffffff;fill-opacity:1;stroke:none;stroke-width:0.00220971"
     d="M 9.1431562,8.5353611 C 9.1615748,8.4348969 9.3373033,7.482626 9.533664,6.4192037 L 9.8906835,4.4857086 h 0.9487755 0.948776 l 0.38727,2.1102718 0.38727,2.1102718 -0.561545,0.0059 c -0.30885,0.00325 -0.566457,9.919e-4 -0.572461,-0.00501 -0.006,-0.006 -0.134831,-0.8538741 -0.286284,-1.8841565 -0.151452,-1.0302824 -0.279294,-1.8773839 -0.284092,-1.8824479 -0.0048,-0.00506 -0.01372,-0.00421 -0.01984,0.00191 -0.0061,0.00611 -0.138464,0.8554701 -0.294111,1.8874595 l -0.282997,1.8763445 -0.5758894,0.00589 -0.5758897,0.00589 z"
     id="path18"
     transform="matrix(4.9999999,0,0,4.9999999,0,-67.06)" />
  <path
     style="fill:#ffffff;fill-opacity:1;stroke:none;stroke-width:0.00220971"
     d="M 20.380614,8.8497748 C 19.883439,8.7980066 19.499938,8.5958523 19.315183,8.2881559 19.199498,8.0954903 19.158174,7.9134112 19.158174,7.5963518 V 7.3251843 h 0.561674 0.561673 l 0.0073,0.2746814 c 0.0063,0.2352188 0.01386,0.2836313 0.05281,0.3369806 0.162947,0.223169 0.61114,0.2108062 0.723921,-0.019969 0.05745,-0.1175442 0.07179,-0.2978902 0.03139,-0.3945866 C 21.020612,7.3395361 20.837998,7.1965885 20.296174,6.8954371 19.854481,6.6499391 19.700371,6.5437834 19.50621,6.3512856 19.260617,6.1077951 19.179777,5.9085466 19.180655,5.548877 c 0.0015,-0.5977474 0.30805,-0.9708358 0.92292,-1.1230951 0.257851,-0.063851 0.806729,-0.069096 1.087531,-0.010391 0.453346,0.094776 0.747019,0.3283959 0.8483,0.6748315 0.01903,0.065108 0.04129,0.2366362 0.04946,0.3811748 l 0.01485,0.2627972 h -0.53101 -0.53101 l -0.0092,-0.2096541 c -0.01011,-0.2311868 -0.03604,-0.2884614 -0.172654,-0.3814429 -0.05607,-0.038161 -0.104395,-0.04971 -0.207891,-0.049684 -0.240369,6.12e-5 -0.366453,0.1045662 -0.384189,0.3184364 -0.01342,0.1618548 0.0037,0.2187265 0.0968,0.3217979 0.101707,0.1125768 0.229848,0.1962754 0.660778,0.4316047 0.467662,0.2553879 0.682179,0.4009741 0.855772,0.5807845 0.253932,0.2630279 0.319276,0.4642342 0.297986,0.9175451 -0.02273,0.4839028 -0.155576,0.7544047 -0.468748,0.9544525 -0.297624,0.1901159 -0.833184,0.2834482 -1.329774,0.2317408 z"
     id="path19"
     transform="matrix(4.9999999,0,0,4.9999999,0,-67.06)" />
  <path
     style="fill:#ffffff;fill-opacity:1;stroke:none;stroke-width:0.003125"
     d="M 24.0625,8.7799912 C 23.522433,8.6316128 23.262611,8.3522462 23.188621,7.8403775 23.171288,7.7204719 23.157214,6.9289164 23.156869,6.0546875 L 23.15625,4.484375 H 23.703125 24.25 v 1.6578019 c 0,1.8186646 -0.0028,1.7906843 0.186477,1.888544 0.200887,0.1038828 0.488762,0.034691 0.578619,-0.1390731 0.04062,-0.078558 0.0474,-0.3287681 0.0474,-1.7494709 V 4.484375 h 0.549217 0.549217 l -0.01215,1.7109375 c -0.01062,1.4950125 -0.01876,1.7309972 -0.06453,1.8698859 -0.104364,0.3166597 -0.340224,0.543736 -0.701968,0.6758263 -0.24017,0.087698 -1.054862,0.1117515 -1.319784,0.038966 z"
     id="path20"
     transform="matrix(4.9999999,0,0,4.9999999,0,-67.06)" />
  <path
     style="fill:#ffffff;fill-opacity:1;stroke:none;stroke-width:0.003125"
     d="m 27.3125,6.578125 v -2.09375 h 0.791963 0.791963 l 0.446909,1.5234375 c 0.2458,0.8378906 0.459708,1.5695006 0.475352,1.6258 0.04422,0.1591481 0.09207,0.0862 0.07398,-0.1127951 -0.0089,-0.097387 -0.02468,-0.8204268 -0.03518,-1.6067549 L 29.838403,4.484375 H 30.356701 30.875 v 2.09375 2.09375 h -0.748744 -0.748745 l -0.06,-0.1953125 c -0.033,-0.1074219 -0.26039,-0.85625 -0.505315,-1.6640625 -0.244924,-0.8078125 -0.458713,-1.4828125 -0.475085,-1.5 -0.0302,-0.031703 -0.01019,2.34945 0.02541,3.0234375 l 0.01774,0.3359375 H 27.846384 27.3125 Z"
     id="path21"
     transform="matrix(4.9999999,0,0,4.9999999,0,-67.06)" />
  <path
     style="fill:#ffffff;fill-opacity:1;stroke:#2d4f9e;stroke-width:0.0015625;stroke-dasharray:none;stroke-opacity:1"
     d="M 6.5165869,8.8579287 C 5.7388272,8.7358997 5.375,8.3432103 5.375,7.6257806 V 7.328125 H 5.9375 6.5 v 0.2515519 c 0,0.4133659 0.1228761,0.5486659 0.4751444,0.523185 C 7.2309444,8.084359 7.3187912,7.9957784 7.3374728,7.7375075 7.3618411,7.4006198 7.2574286,7.3013935 6.344061,6.793438 5.8812305,6.5360418 5.5379109,6.213504 5.4537447,5.9570141 5.3914577,5.7671993 5.3815963,5.3794856 5.4340963,5.1845153 L 5.4674733,5.0605625 6.2698217,4.7043106 7.0721701,4.3480587 7.3192405,4.3840696 C 7.6484999,4.4320596 7.9024374,4.5497837 8.0752784,4.7345647 8.2456754,4.9167329 8.3125,5.1207468 8.3125,5.4587969 V 5.703125 H 7.78125 7.25 V 5.5170954 C 7.25,5.191903 7.1444821,5.078125 6.842898,5.078125 c -0.1344598,0 -0.1745162,0.01431 -0.2492537,0.089048 -0.1126671,0.1126671 -0.1469683,0.2814876 -0.088439,0.4352692 0.055504,0.1458309 0.2274521,0.2765529 0.7040771,0.5352669 0.6656692,0.361328 0.9865561,0.6191825 1.1196946,0.899751 0.074483,0.1569614 0.1030578,0.4421824 0.075067,0.7492846 -0.050885,0.558284 -0.3289525,0.876734 -0.8932334,1.022954 -0.2374759,0.061536 -0.7507275,0.086434 -0.9942237,0.04823 z"
     id="path24"
     transform="matrix(4.9999999,0,0,4.9999999,0,-67.06)" />
  <path
     style="fill:#ffffff;fill-opacity:1;stroke:#2d4f9e;stroke-width:0.00220971;stroke-dasharray:none;stroke-opacity:1"
     d="M 32.858368,8.7107236 C 32.483211,8.5920769 32.266341,8.4199415 32.101064,8.1096309 c -0.07512,-0.1410316 -0.08239,-0.271663 -0.08239,-1.4805048 0,-1.4664129 0.01206,-1.5480794 0.270868,-1.8345514 0.482441,-0.5340041 1.889859,-0.5514673 2.394817,-0.029715 0.179132,0.1850891 0.262959,0.3959485 0.299604,0.7536286 l 0.03002,0.2930453 H 34.47755 33.941116 v -0.156099 c 0,-0.085854 -0.02833,-0.2238945 -0.06295,-0.3067556 -0.04973,-0.1190125 -0.100441,-0.1607525 -0.241452,-0.1987227 -0.209482,-0.056407 -0.452492,0.020735 -0.531732,0.1687946 -0.0308,0.057558 -0.04775,0.5102606 -0.04775,1.275539 0,1.321917 0.0044,1.3432046 0.292576,1.4227801 0.207849,0.05739 0.458985,-0.023756 0.534185,-0.1726044 0.0321,-0.063539 0.0561,-0.2747976 0.05647,-0.4971844 l 6.51e-4,-0.386699 h -0.22097 -0.220971 V 6.6512231 6.3418639 h 0.755593 0.755594 l -0.01754,0.7844466 c -0.01243,0.5560055 -0.0362,0.8268594 -0.08163,0.9300885 -0.0568,0.1290559 -0.136764,0.1781272 -0.702178,0.4308932 -0.565491,0.2528008 -0.668556,0.284915 -0.90598,0.2822947 -0.147346,-0.00163 -0.347451,-0.028115 -0.444678,-0.058863 z"
     id="path25"
     transform="matrix(4.9999999,0,0,4.9999999,0,-67.06)" />
</svg>
