<?xml version="1.0" encoding="UTF-8" standalone="no"?>
<svg
   version="1.1"
   width="56.66048"
   height="15.992805"
   id="svg3665"
   sodipodi:docname="05banner_logo.svg"
   viewBox="0 0 623.26528 175.92085"
   inkscape:version="1.1.2 (0a00cf5339, 2022-02-04)"
   xmlns:inkscape="http://www.inkscape.org/namespaces/inkscape"
   xmlns:sodipodi="http://sodipodi.sourceforge.net/DTD/sodipodi-0.dtd"
   xmlns="http://www.w3.org/2000/svg"
   xmlns:svg="http://www.w3.org/2000/svg">
  <sodipodi:namedview
     id="namedview6"
     pagecolor="#ffffff"
     bordercolor="#666666"
     borderopacity="1.0"
     inkscape:pageshadow="2"
     inkscape:pageopacity="0.0"
     inkscape:pagecheckerboard="0"
     showgrid="false"
     width="40px"
     fit-margin-top="0"
     fit-margin-left="0"
     fit-margin-right="0"
     fit-margin-bottom="0"
     lock-margins="true"
     scale-x="11"
     inkscape:zoom="2.0986466"
     inkscape:cx="130.56033"
     inkscape:cy="88.152049"
     inkscape:window-width="1920"
     inkscape:window-height="1008"
     inkscape:window-x="1920"
     inkscape:window-y="0"
     inkscape:window-maximized="1"
     inkscape:current-layer="svg3665" />
  <defs
     id="defs3667" />
  <g
     transform="translate(-38.36737,-444.40175)"
     id="layer1">
    <path
       d="m 610.03408,499.11249 c -14.95157,10.62468 -23.14192,21.7405 -23.14192,45.87613 v 71.47442 h 38.58456 v -68.07985 c 0,-9.1898 0.96592,-17.39128 12.05955,-25.11267 11.07663,-7.7326 24.09636,-14.97943 24.09636,-14.97943 l -19.30058,-30.93023 c 0,0 -23.33723,15.37586 -32.29797,21.75163 m -298.06165,5.28331 c -9.65316,-6.052 -21.04823,-9.63635 -33.2695,-9.63635 -34.63184,0 -62.69785,28.1274 -62.69785,62.79278 0,34.6653 28.06601,62.77038 62.69785,62.77038 12.22127,0 23.61634,-3.55642 33.2695,-9.64189 v 5.30947 h 35.22345 V 495.73643 h -35.22345 z m 0,57.53911 c -2.55152,15.31433 -15.81129,27.01084 -31.81796,27.01084 -17.84904,0 -32.32037,-14.48793 -32.32037,-32.37064 0,-17.86024 14.47133,-32.34271 32.32037,-32.34271 16.00667,0 29.26644,11.66305 31.81796,26.98305 z m 188.76623,-69.91566 c -18.29553,0 -33.52067,6.15252 -45.64714,18.44085 -12.13754,12.2884 -18.20074,27.73671 -18.20074,46.32835 0,18.16175 6.07433,33.26936 18.2454,45.35684 12.17114,12.07614 27.92656,18.06675 47.27187,18.06675 12.43911,0 23.2367,-2.19407 32.29811,-6.56569 9.06135,-4.38261 14.555,-10.70833 27.20622,-27.56359 l -26.05065,-12.17114 c -8.29641,16.4869 -22.11454,19.37884 -33.66026,19.37884 -9.69782,0 -17.6146,-2.5961 -23.85085,-7.76598 -6.23625,-5.18668 -10.07185,-12.14874 -11.48993,-20.93664 h 99.45671 l 0.11268,-5.78956 c 0,-20.06552 -6.08553,-36.20064 -18.2678,-48.43864 -12.17114,-12.2102 -27.98236,-18.34039 -47.42259,-18.34039 M 468.168,540.68693 c 3.48949,-7.42555 7.31943,-12.59557 11.40627,-15.53785 6.53216,-4.70092 14.1531,-7.05691 22.82354,-7.05691 7.99503,0 14.99062,2.09368 21.03143,6.29205 6.04094,4.17617 10.09978,9.62522 12.14887,16.30271 z M 377.95258,480.474 h 38.06534 v -36.07225 h -38.06534 z m 0,136.66233 h 38.06534 V 494.64383 H 377.95258 Z M 151.49155,516.89228 H 77.287038 V 449.94567 H 38.36737 v 167.20192 h 38.919668 v -69.38087 h 74.204512 v 69.38087 h 41.35939 V 449.94567 h -41.35939 z"
       id="path254"
       style="fill:#d51148;fill-opacity:1;fill-rule:nonzero;stroke:none" />
  </g>
</svg>
