<?xml version="1.0" encoding="UTF-8" standalone="no"?>
<svg
   width="20"
   height="20"
   version="1.1"
   id="svg1"
   sodipodi:docname="CrossCircle.svg"
   inkscape:version="1.3 (0e150ed6c4, 2023-07-21)"
   xmlns:inkscape="http://www.inkscape.org/namespaces/inkscape"
   xmlns:sodipodi="http://sodipodi.sourceforge.net/DTD/sodipodi-0.dtd"
   xmlns="http://www.w3.org/2000/svg"
   xmlns:svg="http://www.w3.org/2000/svg">
  <defs
     id="defs1" />
  <sodipodi:namedview
     id="namedview1"
     pagecolor="#505050"
     bordercolor="#ffffff"
     borderopacity="1"
     inkscape:showpageshadow="0"
     inkscape:pageopacity="0"
     inkscape:pagecheckerboard="1"
     inkscape:deskcolor="#505050"
     inkscape:zoom="41.05"
     inkscape:cx="9.9878197"
     inkscape:cy="10"
     inkscape:window-width="1920"
     inkscape:window-height="1017"
     inkscape:window-x="1912"
     inkscape:window-y="-8"
     inkscape:window-maximized="1"
     inkscape:current-layer="svg1" />
  <path
     style="fill:#000000;stroke-width:0.0243605;fill-opacity:0.45999998"
     d="M 5.7003147,14.287404 5.0184953,13.605258 6.8210008,11.802629 8.6235062,10 6.8209461,8.1973164 5.018386,6.3946329 5.7065094,5.7065094 6.3946329,5.018386 8.1973164,6.8209461 10,8.6235062 11.802684,6.8209461 13.605367,5.018386 14.293491,5.7065094 14.981614,6.3946329 13.179054,8.1973164 11.376494,10 l 1.80256,1.802684 1.80256,1.802683 -0.688123,0.688124 -0.688124,0.688123 -1.802683,-1.80256 L 10,11.376494 8.2033491,13.173021 c -0.9881579,0.988091 -1.8021777,1.796528 -1.8089329,1.796528 -0.00676,0 -0.3191008,-0.306965 -0.6941015,-0.682145 z"
     id="path2" />
</svg>
